<svg width="20" height="21" viewBox="0 0 20 21" fill="none" xmlns="http://www.w3.org/2000/svg">
<g clip-path="url(#clip0_3_308)">
<path fill-rule="evenodd" clip-rule="evenodd" d="M18.0406 17.0625C16.8508 15.0055 15.0172 13.5305 12.8773 12.8313C15.053 11.5361 16.0951 8.94698 15.4235 6.50575C14.7518 4.06451 12.5319 2.37287 10 2.37287C7.46806 2.37287 5.24816 4.06451 4.57652 6.50575C3.90487 8.94698 4.94704 11.5361 7.12266 12.8313C4.98281 13.5297 3.14922 15.0047 1.95938 17.0625C1.84059 17.2562 1.83627 17.4991 1.94811 17.6969C2.05995 17.8947 2.27031 18.0162 2.49752 18.0142C2.72473 18.0123 2.93298 17.8872 3.04141 17.6875C4.51328 15.1438 7.11484 13.625 10 13.625C12.8852 13.625 15.4867 15.1438 16.9586 17.6875C17.067 17.8872 17.2753 18.0123 17.5025 18.0142C17.7297 18.0162 17.9401 17.8947 18.0519 17.6969C18.1637 17.4991 18.1594 17.2562 18.0406 17.0625ZM5.625 8C5.625 5.58375 7.58375 3.625 10 3.625C12.4162 3.625 14.375 5.58375 14.375 8C14.375 10.4162 12.4162 12.375 10 12.375C7.58483 12.3724 5.62758 10.4152 5.625 8Z" fill="#1C170D"/>
</g>
<defs>
<clipPath id="clip0_3_308">
<rect width="20" height="20" fill="white" transform="translate(0 0.5)"/>
</clipPath>
</defs>
</svg>
